<svg width="959" height="216" viewBox="0 0 959 216" fill="none" xmlns="http://www.w3.org/2000/svg">
<path d="M888.984 145.781C888.203 146.042 887.096 146.237 885.664 146.367C884.362 146.367 883.06 145.781 881.758 144.609C880.586 143.307 880 141.875 880 140.312C880 137.188 881.432 135.039 884.297 133.867L942.109 108.281L884.297 82.5C882.995 81.9792 881.953 81.1979 881.172 80.1562C880.391 78.9844 880 77.6823 880 76.25C880 74.6875 880.586 73.2552 881.758 71.9531C883.06 70.651 884.362 70 885.664 70C886.966 70 888.073 70.1953 888.984 70.5859L952.852 99.2969C956.758 101.12 958.646 103.854 958.516 107.5V108.867C958.516 112.643 956.628 115.378 952.852 117.07L888.984 145.781Z" fill="white"/>
<path d="M71.0467 71.1034C71.8314 70.8537 72.9407 70.6735 74.3746 70.5628C75.6766 70.5805 76.9706 71.1841 78.2566 72.3736C79.4106 73.6915 79.977 75.1317 79.9557 76.694C79.9132 79.8187 78.4518 81.9475 75.5715 83.0802L17.4159 107.877L74.872 134.443C76.1669 134.981 77.1978 135.777 77.9648 136.829C78.73 138.011 79.1029 139.318 79.0834 140.751C79.0621 142.313 78.4567 143.737 77.2672 145.023C75.9475 146.307 74.6367 146.941 73.3348 146.923C72.0328 146.905 70.9288 146.695 70.0227 146.292L6.55241 116.714C2.67135 114.838 0.820736 112.078 1.00058 108.434L1.01919 107.067C1.07061 103.292 2.99569 100.583 6.79443 98.942L71.0467 71.1034Z" fill="white"/>
<path d="M635.113 133.664C635.113 135.812 635.96 138.026 637.652 140.305C640.777 144.471 645.758 146.555 652.594 146.555C656.76 146.555 660.439 145.578 663.629 143.625L669.488 158.371C664.41 161.04 658.779 162.375 652.594 162.375C642.828 162.375 634.169 158.794 626.617 151.633C621.539 146.424 619 140.435 619 133.664C619 133.404 619 133.143 619 132.883C619 120.708 625.217 112.082 637.652 107.004L677.398 90.6953C677.398 84.5104 675.348 79.3346 671.246 75.168C667.145 70.9362 661.969 68.8203 655.719 68.8203C650.25 68.8203 645.432 70.8711 641.266 74.9727C637.229 78.944 635.146 83.957 635.016 90.0117V91.3789L619.391 98.3125V89.7188C619.391 80.6042 623.297 71.8802 631.109 63.5469C637.75 56.5156 646.148 53 656.305 53C666.461 53 675.12 56.5807 682.281 63.7422C689.443 70.9036 693.023 79.5625 693.023 89.7188V155.539L677.398 162.375V107.785L645.27 120.871C638.499 124.061 635.113 128.326 635.113 133.664Z" fill="white"/>
<path d="M481 162.375V89.7188C481 79.5625 484.581 70.9036 491.742 63.7422C498.904 56.5807 507.562 53 517.719 53C528.07 53 536.762 56.5807 543.793 63.7422C551.02 71.1641 554.633 79.8229 554.633 89.7188V90.1094L539.008 96.9453V90.0117C538.878 83.957 536.794 78.944 532.758 74.9727C528.591 70.8711 523.676 68.8203 518.012 68.8203C512.087 68.8203 507.042 70.8711 502.875 74.9727C498.708 79.0742 496.625 83.9896 496.625 89.7188C496.625 89.849 496.625 89.9466 496.625 90.0117V155.539L481 162.375Z" fill="white"/>
<path d="M401.086 143.863L416.711 137.027V144.84C416.711 154.996 413.13 163.655 405.969 170.816C398.807 177.978 390.148 181.559 379.992 181.559C369.836 181.559 361.145 177.978 353.918 170.816C346.691 163.655 343.078 154.996 343.078 144.84V79.0195L358.703 72.1836V144.547C358.833 150.602 360.917 155.615 364.953 159.586C369.12 163.688 374.328 165.738 380.578 165.738C386.047 165.738 390.832 163.525 394.934 159.098C399.035 154.671 401.086 149.592 401.086 143.863ZM341.711 56.0703C339.237 53.5312 338 50.4714 338 46.8906C338 43.3099 339.237 40.2826 341.711 37.8086C344.185 35.2695 347.18 34 350.695 34C354.211 34 357.206 35.2695 359.68 37.8086C362.154 40.2826 363.391 43.3099 363.391 46.8906C363.391 50.4714 362.154 53.5312 359.68 56.0703C357.206 58.5443 354.211 59.7812 350.695 59.7812C347.18 59.7812 344.185 58.5443 341.711 56.0703Z" fill="white"/>
<path d="M183 162.375V79.5625C183 72.2708 185.604 66.0208 190.812 60.8125C196.021 55.6042 202.303 53 209.66 53C217.277 53 223.56 55.5391 228.508 60.6172C233.716 55.5391 239.966 53 247.258 53C255.07 53 261.418 55.5391 266.301 60.6172C271.249 65.7604 273.755 72.1081 273.82 79.6602V155.539L258.195 162.375L258.293 80.0508C258.293 76.7956 257.219 74.0286 255.07 71.75C252.922 69.4714 250.383 68.332 247.453 68.332C244.393 68.332 241.789 69.4714 239.641 71.75C237.427 74.0938 236.32 76.8281 236.32 79.9531V80.0508L236.223 155.539L220.598 162.375L220.695 80.0508C220.695 76.7956 219.621 74.0286 217.473 71.75C215.324 69.4714 212.785 68.332 209.855 68.332C206.861 68.332 204.257 69.4714 202.043 71.75C199.829 74.0286 198.723 76.7956 198.723 80.0508L198.625 155.539L183 162.375Z" fill="white"/>
<path d="M864.379 0L878.539 6.64062L790.16 215.918L776 209.277L864.379 0Z" fill="white"/>
</svg>
