<svg width="50" height="20" viewBox="0 0 50 20" fill="none" xmlns="http://www.w3.org/2000/svg">
<g opacity="0.5">
<path d="M43.7735 10.4747C43.7735 10.6877 43.8645 10.9071 44.0465 11.133C44.3825 11.5461 44.9181 11.7526 45.6531 11.7526C46.1011 11.7526 46.4966 11.6558 46.8396 11.4622L47.4696 12.924C46.9236 13.1886 46.3181 13.3209 45.6531 13.3209C44.6031 13.3209 43.672 12.9659 42.86 12.256C42.314 11.7397 42.041 11.1459 42.041 10.4747C42.041 10.4489 42.041 10.4231 42.041 10.3973C42.041 9.19037 42.7095 8.33523 44.0465 7.83182L48.3201 6.21511C48.3201 5.60198 48.0996 5.08889 47.6586 4.67584C47.2176 4.25633 46.6611 4.04658 45.9891 4.04658C45.4011 4.04658 44.8831 4.24988 44.435 4.65648C44.001 5.05017 43.777 5.54712 43.763 6.14734V6.28287L42.083 6.97022V6.1183C42.083 5.21474 42.503 4.34992 43.343 3.52381C44.057 2.82678 44.9601 2.47827 46.0521 2.47827C47.1441 2.47827 48.0751 2.83324 48.8451 3.54317C49.6151 4.25311 50.0001 5.11148 50.0001 6.1183V12.6432L48.3201 13.3209V7.90927L44.8656 9.20651C44.1375 9.52275 43.7735 9.94548 43.7735 10.4747Z" fill="white"/>
<path d="M31.1812 13.3209V6.1183C31.1812 5.11148 31.5662 4.25311 32.3362 3.54317C33.1062 2.83324 34.0372 2.47827 35.1292 2.47827C36.2422 2.47827 37.1767 2.83324 37.9327 3.54317C38.7098 4.27892 39.0983 5.1373 39.0983 6.1183V6.15702L37.4182 6.83468V6.14734C37.4042 5.54712 37.1802 5.05017 36.7462 4.65648C36.2982 4.24988 35.7697 4.04658 35.1607 4.04658C34.5237 4.04658 33.9812 4.24988 33.5332 4.65648C33.0852 5.06308 32.8612 5.55035 32.8612 6.1183C32.8612 6.1312 32.8612 6.14088 32.8612 6.14734V12.6432L31.1812 13.3209Z" fill="white"/>
<path d="M21.2959 12.5524L23.1242 12.6821L22.7295 13.3657C22.2164 14.2545 21.439 14.8454 20.3975 15.1384C19.356 15.4315 18.3532 15.3415 17.3893 14.8684C16.4254 14.3953 15.7814 13.6771 15.4573 12.7138C15.1333 11.7505 15.2278 10.8245 15.741 9.93572L19.0665 4.17604L20.8949 4.30571L17.2387 10.6379C16.9452 11.1738 16.8896 11.7095 17.0721 12.2451C17.2603 12.7981 17.651 13.2202 18.2442 13.5113C18.7633 13.7661 19.3293 13.7953 19.9422 13.5989C20.5552 13.4026 21.0064 13.0538 21.2959 12.5524ZM20.0962 2.10415C19.9897 1.76673 20.0269 1.44134 20.2078 1.12801C20.3888 0.814673 20.6591 0.607384 21.0189 0.506141C21.382 0.399201 21.7304 0.427615 22.0641 0.591382C22.3977 0.75515 22.6178 1.00575 22.7243 1.34317C22.8342 1.6749 22.7986 1.99744 22.6177 2.31077C22.4368 2.62411 22.1648 2.83425 21.8017 2.94119C21.4419 3.04243 21.0951 3.01117 20.7615 2.8474C20.4278 2.68363 20.2061 2.43588 20.0962 2.10415Z" fill="white"/>
<path d="M0 13.6183V5.40884C0 4.686 0.280004 4.06642 0.840011 3.55011C1.40002 3.03379 2.07553 2.77563 2.86654 2.77563C3.68555 2.77563 4.36106 3.02734 4.89307 3.53075C5.45307 3.02734 6.12508 2.77563 6.90909 2.77563C7.74911 2.77563 8.43162 3.02734 8.95662 3.53075C9.48863 4.04061 9.75813 4.66987 9.76513 5.41852V12.9406L8.08511 13.6183L8.09561 5.45725C8.09561 5.13455 7.98011 4.86026 7.74911 4.63437C7.5181 4.40848 7.2451 4.29554 6.93009 4.29554C6.60109 4.29554 6.32109 4.40848 6.09008 4.63437C5.85208 4.86671 5.73308 5.13778 5.73308 5.44757V5.45725L5.72258 12.9406L4.04256 13.6183L4.05306 5.45725C4.05306 5.13455 3.93755 4.86026 3.70655 4.63437C3.47555 4.40848 3.20254 4.29554 2.88754 4.29554C2.56553 4.29554 2.28553 4.40848 2.04753 4.63437C1.80952 4.86026 1.69052 5.13455 1.69052 5.45725L1.68002 12.9406L0 13.6183Z" fill="white"/>
<path d="M25.5523 18.8709C26.0009 18.8709 26.3713 18.7315 26.6636 18.4527C26.9559 18.1645 27.1021 17.8439 27.1021 17.4908C27.1021 17.1794 26.9559 16.8843 26.6636 16.6055C26.3663 16.3267 25.9631 16.1757 25.454 16.1525C24.829 16.1246 24.3326 15.9503 23.9647 15.6297C23.6068 15.3184 23.3926 14.8723 23.3221 14.2914C23.317 14.2496 23.3145 14.2078 23.3145 14.1659C23.3397 13.6594 23.5615 13.2087 23.9798 12.8137C24.4082 12.4001 24.9298 12.1934 25.5447 12.1934C26.1949 12.1934 26.7165 12.4001 27.1097 12.8137C27.3718 13.0925 27.5759 13.4619 27.722 13.922L26.6258 14.3681C26.5452 14.0614 26.4217 13.8174 26.2554 13.6362C26.0689 13.4457 25.8295 13.3504 25.5372 13.3504C25.26 13.3504 25.018 13.4457 24.8114 13.6362C24.6199 13.8128 24.5241 14.0126 24.5241 14.2356C24.5241 14.2449 24.5241 14.2566 24.5241 14.2705C24.5241 14.4935 24.6148 14.6864 24.7963 14.849C24.9626 15.0024 25.2045 15.0953 25.5221 15.1278C26.399 15.2208 27.0719 15.4694 27.5406 15.8737C28.0547 16.329 28.3117 16.8843 28.3117 17.5395V17.5605C28.3016 18.1831 28.0522 18.7408 27.5633 19.2333C27.0492 19.7445 26.3789 20.0001 25.5523 20.0001C24.761 20.0001 24.1108 19.7491 23.6018 19.2473C23.0323 18.6943 22.7299 18.0716 22.6946 17.3792L22.687 17.3095L23.8966 16.8216L23.9042 17.3583C23.9092 17.7905 24.068 18.1483 24.3805 18.4317C24.703 18.7245 25.0936 18.8709 25.5523 18.8709Z" fill="white"/>
</g>
</svg>
