<svg width="466" height="202" viewBox="0 0 466 202" fill="none" xmlns="http://www.w3.org/2000/svg">
<path d="M407.113 105.664C407.113 107.812 407.96 110.026 409.652 112.305C412.777 116.471 417.758 118.555 424.594 118.555C428.76 118.555 432.439 117.578 435.629 115.625L441.488 130.371C436.41 133.04 430.779 134.375 424.594 134.375C414.828 134.375 406.169 130.794 398.617 123.633C393.539 118.424 391 112.435 391 105.664C391 105.404 391 105.143 391 104.883C391 92.7083 397.217 84.082 409.652 79.0039L449.398 62.6953C449.398 56.5104 447.348 51.3346 443.246 47.168C439.145 42.9362 433.969 40.8203 427.719 40.8203C422.25 40.8203 417.432 42.8711 413.266 46.9727C409.229 50.944 407.146 55.957 407.016 62.0117V63.3789L391.391 70.3125V61.7188C391.391 52.6042 395.297 43.8802 403.109 35.5469C409.75 28.5156 418.148 25 428.305 25C438.461 25 447.12 28.5807 454.281 35.7422C461.443 42.9036 465.023 51.5625 465.023 61.7188V127.539L449.398 134.375V79.7852L417.27 92.8711C410.499 96.0612 407.113 100.326 407.113 105.664Z" fill="white"/>
<path d="M290 134.375V61.7188C290 51.5625 293.581 42.9036 300.742 35.7422C307.904 28.5807 316.562 25 326.719 25C337.07 25 345.762 28.5807 352.793 35.7422C360.02 43.1641 363.633 51.8229 363.633 61.7188V62.1094L348.008 68.9453V62.0117C347.878 55.957 345.794 50.944 341.758 46.9727C337.591 42.8711 332.676 40.8203 327.012 40.8203C321.087 40.8203 316.042 42.8711 311.875 46.9727C307.708 51.0742 305.625 55.9896 305.625 61.7188C305.625 61.849 305.625 61.9466 305.625 62.0117V127.539L290 134.375Z" fill="white"/>
<path d="M198.062 126.623L215.067 127.931L211.396 134.827C206.623 143.792 199.393 149.753 189.707 152.709C180.02 155.665 170.694 154.757 161.729 149.985C152.764 145.212 146.774 137.968 143.761 128.25C140.747 118.533 141.626 109.192 146.399 100.227L177.328 42.1258L194.332 43.4338L160.329 107.31C157.598 112.716 157.082 118.12 158.779 123.522C160.529 129.101 164.163 133.358 169.68 136.295C174.508 138.865 179.772 139.16 185.472 137.179C191.173 135.199 195.37 131.68 198.062 126.623ZM186.905 21.2256C185.914 17.8218 186.26 14.5396 187.943 11.3788C189.625 8.21801 192.14 6.12698 195.486 5.1057C198.863 4.02694 202.103 4.31357 205.206 5.96557C208.31 7.61757 210.357 10.1455 211.347 13.5493C212.369 16.8956 212.038 20.1492 210.355 23.3099C208.673 26.4707 206.143 28.5905 202.766 29.6692C199.42 30.6905 196.195 30.3751 193.092 28.7231C189.988 27.0711 187.926 24.572 186.905 21.2256Z" fill="white"/>
<path d="M0 137.375V54.5625C0 47.2708 2.60417 41.0208 7.8125 35.8125C13.0208 30.6042 19.3034 28 26.6602 28C34.2773 28 40.5599 30.5391 45.5078 35.6172C50.7161 30.5391 56.9661 28 64.2578 28C72.0703 28 78.418 30.5391 83.3008 35.6172C88.2487 40.7604 90.7552 47.1081 90.8203 54.6602V130.539L75.1953 137.375L75.293 55.0508C75.293 51.7956 74.2188 49.0286 72.0703 46.75C69.9219 44.4714 67.3828 43.332 64.4531 43.332C61.3932 43.332 58.7891 44.4714 56.6406 46.75C54.4271 49.0938 53.3203 51.8281 53.3203 54.9531V55.0508L53.2227 130.539L37.5977 137.375L37.6953 55.0508C37.6953 51.7956 36.6211 49.0286 34.4727 46.75C32.3242 44.4714 29.7852 43.332 26.8555 43.332C23.8607 43.332 21.2565 44.4714 19.043 46.75C16.8294 49.0286 15.7227 51.7956 15.7227 55.0508L15.625 130.539L0 137.375Z" fill="white"/>
<path d="M237.648 190.359C241.82 190.359 245.266 188.953 247.984 186.141C250.703 183.234 252.062 180 252.062 176.438C252.062 173.297 250.703 170.32 247.984 167.508C245.219 164.695 241.469 163.172 236.734 162.938C230.922 162.656 226.305 160.898 222.883 157.664C219.555 154.523 217.562 150.023 216.906 144.164C216.859 143.742 216.836 143.32 216.836 142.898C217.07 137.789 219.133 133.242 223.023 129.258C227.008 125.086 231.859 123 237.578 123C243.625 123 248.477 125.086 252.133 129.258C254.57 132.07 256.469 135.797 257.828 140.438L247.633 144.938C246.883 141.844 245.734 139.383 244.188 137.555C242.453 135.633 240.227 134.672 237.508 134.672C234.93 134.672 232.68 135.633 230.758 137.555C228.977 139.336 228.086 141.352 228.086 143.602C228.086 143.695 228.086 143.812 228.086 143.953C228.086 146.203 228.93 148.148 230.617 149.789C232.164 151.336 234.414 152.273 237.367 152.602C245.523 153.539 251.781 156.047 256.141 160.125C260.922 164.719 263.312 170.32 263.312 176.93V177.141C263.219 183.422 260.898 189.047 256.352 194.016C251.57 199.172 245.336 201.75 237.648 201.75C230.289 201.75 224.242 199.219 219.508 194.156C214.211 188.578 211.398 182.297 211.07 175.312L211 174.609L222.25 169.688L222.32 175.102C222.367 179.461 223.844 183.07 226.75 185.93C229.75 188.883 233.383 190.359 237.648 190.359Z" fill="white"/>
</svg>
