<svg width="959" height="214" viewBox="0 0 959 214" fill="none" xmlns="http://www.w3.org/2000/svg">
<path d="M888.501 133.781C887.719 134.042 886.613 134.237 885.18 134.367C883.878 134.367 882.576 133.781 881.274 132.609C880.102 131.307 879.516 129.875 879.516 128.312C879.516 125.188 880.949 123.039 883.813 121.867L941.626 96.2812L883.813 70.5C882.511 69.9792 881.469 69.1979 880.688 68.1562C879.907 66.9844 879.516 65.6823 879.516 64.25C879.516 62.6875 880.102 61.2552 881.274 59.9531C882.576 58.651 883.878 58 885.18 58C886.483 58 887.589 58.1953 888.501 58.5859L952.368 87.2969C956.274 89.1198 958.162 91.8542 958.032 95.5V96.8672C958.032 100.643 956.144 103.378 952.368 105.07L888.501 133.781Z" fill="#FF4081"/>
<path d="M70.563 59.1034C71.3477 58.8537 72.4571 58.6735 73.891 58.5628C75.193 58.5805 76.4869 59.1841 77.7729 60.3736C78.927 61.6915 79.4934 63.1317 79.4721 64.694C79.4295 67.8187 77.9681 69.9475 75.0878 71.0802L16.9323 95.8766L74.3884 122.443C75.6833 122.981 76.7142 123.777 77.4812 124.829C78.2464 126.011 78.6193 127.318 78.5998 128.751C78.5785 130.313 77.9731 131.737 76.7836 133.023C75.4639 134.307 74.1531 134.941 72.8511 134.923C71.5491 134.905 70.4451 134.695 69.5391 134.292L6.06877 104.714C2.18771 102.838 0.337093 100.078 0.516935 96.4343L0.535551 95.0673C0.586969 91.2916 2.51205 88.5832 6.31079 86.942L70.563 59.1034Z" fill="#FF4081"/>
<path d="M589.63 117.664C589.63 119.812 590.476 122.026 592.169 124.305C595.294 128.471 600.274 130.555 607.11 130.555C611.277 130.555 614.955 129.578 618.145 127.625L624.005 142.371C618.927 145.04 613.295 146.375 607.11 146.375C597.344 146.375 588.686 142.794 581.134 135.633C576.055 130.424 573.516 124.435 573.516 117.664C573.516 117.404 573.516 117.143 573.516 116.883C573.516 104.708 579.734 96.082 592.169 91.0039L631.915 74.6953C631.915 68.5104 629.864 63.3346 625.762 59.168C621.661 54.9362 616.485 52.8203 610.235 52.8203C604.766 52.8203 599.949 54.8711 595.782 58.9727C591.746 62.944 589.662 67.957 589.532 74.0117V75.3789L573.907 82.3125V73.7188C573.907 64.6042 577.813 55.8802 585.626 47.5469C592.266 40.5156 600.665 37 610.821 37C620.977 37 629.636 40.5807 636.798 47.7422C643.959 54.9036 647.54 63.5625 647.54 73.7188V139.539L631.915 146.375V91.7852L599.786 104.871C593.015 108.061 589.63 112.326 589.63 117.664Z" fill="#FF4081"/>
<path d="M472.516 146.375V73.7188C472.516 63.5625 476.097 54.9036 483.259 47.7422C490.42 40.5807 499.079 37 509.235 37C519.587 37 528.278 40.5807 535.309 47.7422C542.536 55.1641 546.149 63.8229 546.149 73.7188V74.1094L530.524 80.9453V74.0117C530.394 67.957 528.311 62.944 524.274 58.9727C520.108 54.8711 515.192 52.8203 509.528 52.8203C503.604 52.8203 498.558 54.8711 494.391 58.9727C490.225 63.0742 488.141 67.9896 488.141 73.7188C488.141 73.849 488.141 73.9466 488.141 74.0117V139.539L472.516 146.375Z" fill="#FF4081"/>
<path d="M380.578 138.623L397.583 139.931L393.912 146.827C389.139 155.792 381.91 161.753 372.223 164.709C362.536 167.665 353.21 166.757 344.245 161.985C335.28 157.212 329.291 149.968 326.277 140.25C323.263 130.533 324.142 121.192 328.915 112.227L359.844 54.1258L376.849 55.4338L342.845 119.31C340.115 124.716 339.598 130.12 341.295 135.522C343.046 141.101 346.68 145.358 352.197 148.295C357.024 150.865 362.288 151.16 367.989 149.179C373.69 147.199 377.886 143.68 380.578 138.623ZM369.421 33.2256C368.43 29.8218 368.776 26.5396 370.459 23.3788C372.142 20.218 374.656 18.127 378.002 17.1057C381.379 16.0269 384.619 16.3136 387.723 17.9656C390.826 19.6176 392.873 22.1455 393.864 25.5493C394.885 28.8956 394.554 32.1492 392.872 35.3099C391.189 38.4707 388.659 40.5905 385.282 41.6692C381.936 42.6905 378.711 42.3751 375.608 40.7231C372.505 39.0711 370.442 36.572 369.421 33.2256Z" fill="#FF4081"/>
<path d="M182.516 149.375V66.5625C182.516 59.2708 185.121 53.0208 190.329 47.8125C195.537 42.6042 201.82 40 209.177 40C216.794 40 223.076 42.5391 228.024 47.6172C233.233 42.5391 239.483 40 246.774 40C254.587 40 260.934 42.5391 265.817 47.6172C270.765 52.7604 273.272 59.1081 273.337 66.6602V142.539L257.712 149.375L257.809 67.0508C257.809 63.7956 256.735 61.0286 254.587 58.75C252.438 56.4714 249.899 55.332 246.969 55.332C243.91 55.332 241.305 56.4714 239.157 58.75C236.943 61.0938 235.837 63.8281 235.837 66.9531V67.0508L235.739 142.539L220.114 149.375L220.212 67.0508C220.212 63.7956 219.137 61.0286 216.989 58.75C214.841 56.4714 212.302 55.332 209.372 55.332C206.377 55.332 203.773 56.4714 201.559 58.75C199.346 61.0286 198.239 63.7956 198.239 67.0508L198.141 142.539L182.516 149.375Z" fill="#FF4081"/>
<path d="M863.895 0L878.055 4.6133L789.677 150L775.516 145.387L863.895 0Z" fill="#FF4081"/>
<path d="M420.165 202.359C424.337 202.359 427.782 200.953 430.501 198.141C433.219 195.234 434.579 192 434.579 188.438C434.579 185.297 433.219 182.32 430.501 179.508C427.735 176.695 423.985 175.172 419.251 174.938C413.438 174.656 408.821 172.898 405.399 169.664C402.071 166.523 400.079 162.023 399.423 156.164C399.376 155.742 399.352 155.32 399.352 154.898C399.587 149.789 401.649 145.242 405.54 141.258C409.524 137.086 414.376 135 420.094 135C426.141 135 430.993 137.086 434.649 141.258C437.087 144.07 438.985 147.797 440.344 152.438L430.149 156.938C429.399 153.844 428.251 151.383 426.704 149.555C424.969 147.633 422.743 146.672 420.024 146.672C417.446 146.672 415.196 147.633 413.274 149.555C411.493 151.336 410.602 153.352 410.602 155.602C410.602 155.695 410.602 155.812 410.602 155.953C410.602 158.203 411.446 160.148 413.134 161.789C414.68 163.336 416.93 164.273 419.884 164.602C428.04 165.539 434.298 168.047 438.657 172.125C443.438 176.719 445.829 182.32 445.829 188.93V189.141C445.735 195.422 443.415 201.047 438.868 206.016C434.087 211.172 427.852 213.75 420.165 213.75C412.805 213.75 406.759 211.219 402.024 206.156C396.727 200.578 393.915 194.297 393.587 187.312L393.516 186.609L404.766 181.688L404.837 187.102C404.884 191.461 406.36 195.07 409.266 197.93C412.266 200.883 415.899 202.359 420.165 202.359Z" fill="#FF4081"/>
</svg>
